<?xml version="1.0" encoding="UTF-8"?>
<!DOCTYPE svg PUBLIC "-//W3C//DTD SVG 1.1//EN" "http://www.w3.org/Graphics/SVG/1.1/DTD/svg11.dtd">
<!-- Creator: CorelDRAW X7 -->
<svg xmlns="http://www.w3.org/2000/svg" xml:space="preserve" width="1200px" height="350px" version="1.1" style="shape-rendering:geometricPrecision; text-rendering:geometricPrecision; image-rendering:optimizeQuality; fill-rule:evenodd; clip-rule:evenodd"
viewBox="0 0 1200 350"
 xmlns:xlink="http://www.w3.org/1999/xlink">
 <defs>
  <style type="text/css">
   <![CDATA[
    .fil3 {fill:black}
    .fil0 {fill:#1F1A17}
    .fil1 {fill:black;fill-rule:nonzero}
    .fil2 {fill:#E2B13C;fill-rule:nonzero}
   ]]>
  </style>
 </defs>
 <g id="Layer_x0020_1">
  <metadata id="CorelCorpID_0Corel-Layer"/>
  <g id="_960669249184">
   <g>
    <path class="fil0" d="M266 53c-96,7 -181,46 -233,94 -5,5 -15,17 -12,26 5,13 15,9 32,9 27,0 55,0 82,0 54,0 108,2 162,2 24,0 139,2 157,5 11,2 72,7 76,2 14,-16 -21,-39 -29,-46 -30,-26 -57,-44 -100,-63 -31,-14 -96,-32 -135,-29z"/>
    <path class="fil0" d="M247 192l-18 70 2 2 96 3c0,-17 -9,-47 -14,-64 -6,-17 -7,-12 -28,-12 -12,1 -25,1 -38,1z"/>
    <path class="fil0" d="M312 188l26 77 46 1c0,-13 -14,-46 -20,-58 -3,-7 -5,-21 -15,-21 -12,0 -24,1 -37,1z"/>
    <path class="fil0" d="M221 266l21 -78c-9,0 -38,-7 -41,-1 -5,8 -28,67 -22,72 2,1 37,7 42,7z"/>
    <path class="fil1" d="M244 276l0 9 -2 0c-1,-2 -4,-4 -8,-5 -4,-2 -9,-2 -14,-2 -5,0 -9,0 -12,1 -4,1 -7,2 -8,4 -3,2 -4,4 -4,6 0,2 1,4 3,6 1,2 4,4 7,4 4,1 8,2 13,2 5,0 9,0 13,-1 3,-1 7,-2 11,-4l0 2c-4,2 -8,3 -12,4 -4,0 -9,1 -15,1 -8,0 -14,-1 -20,-2 -6,-1 -10,-3 -14,-5 -3,-2 -4,-4 -4,-6 0,-3 1,-5 5,-7 3,-2 8,-4 14,-5 6,-1 12,-2 19,-2 5,0 10,1 16,1 3,1 5,1 6,1 1,0 2,0 3,0 1,-1 1,-1 1,-2l2 0zm35 14l0 8c0,1 1,2 1,2 0,1 1,1 2,1 1,0 3,0 5,0l2 0 0 1 -37 0 0 -1 3 0c2,0 4,0 5,0 1,0 1,0 2,-1 0,0 0,-1 0,-2l0 -17c0,-1 0,-2 0,-2 -1,-1 -1,-1 -2,-1 -2,-1 -3,-1 -5,-1l-3 0 0 0 37 0 0 0 -2 0c-2,0 -4,0 -5,1 -1,0 -2,0 -2,1 0,0 -1,1 -1,2l0 7 25 0 0 -7c0,-1 0,-2 0,-2 -1,-1 -1,-1 -3,-1 -1,-1 -2,-1 -4,-1l-3 0 0 0 37 0 0 0 -2 0c-2,0 -4,0 -5,1 -1,0 -2,0 -2,1 -1,0 -1,1 -1,2l0 17c0,1 0,2 1,2 0,1 1,1 2,1 1,0 3,0 5,0l2 0 0 1 -37 0 0 -1 3 0c2,0 3,0 5,0 1,0 1,0 2,-1 0,0 0,-1 0,-2l0 -8 -25 0zm104 -14l1 9 -3 0c-1,-3 -3,-4 -7,-6 -4,-1 -8,-1 -13,-1 -3,0 -6,0 -8,1 -2,0 -3,1 -3,2 0,0 0,1 1,1 1,1 2,2 5,2 1,1 5,1 11,2 8,2 14,3 17,4 3,2 4,3 4,5 0,2 -2,4 -7,5 -5,2 -10,3 -17,3 -3,0 -5,0 -7,-1 -2,0 -4,0 -7,0 -2,-1 -3,-1 -4,-1 -1,0 -2,0 -3,1 -1,0 -2,0 -3,1l-1 0 0 -10 1 0c2,3 5,5 9,6 5,2 9,2 14,2 4,0 7,0 10,-1 2,-1 3,-1 3,-2 0,-1 0,-2 -1,-2 -1,-1 -2,-1 -4,-2 -2,0 -5,-1 -10,-2 -6,-1 -11,-2 -14,-3 -3,0 -5,-1 -6,-2 -2,-1 -2,-2 -2,-4 0,-2 2,-3 6,-5 4,-1 9,-2 15,-2 3,0 5,0 7,0 2,1 4,1 6,1 2,1 4,1 5,1 1,0 2,0 2,0 1,-1 1,-1 1,-2l2 0z"/>
   </g>
   <g>
    <path class="fil2" d="M631 245l1 13 -1 0c-1,-4 -3,-7 -5,-8 -2,-2 -4,-3 -7,-3 -2,0 -4,1 -6,2 -2,1 -3,3 -4,6 -1,3 -2,6 -2,10 0,3 1,6 2,8 1,3 2,5 4,6 2,1 4,2 7,2 2,0 4,-1 6,-2 2,-1 4,-3 6,-6l1 1c-2,3 -4,6 -7,7 -2,1 -5,2 -8,2 -6,0 -10,-2 -13,-6 -3,-4 -4,-8 -4,-12 0,-4 1,-7 2,-10 2,-3 4,-5 7,-7 3,-2 6,-3 9,-3 2,0 5,1 7,2 1,1 2,1 2,1 0,0 1,0 1,-1 0,0 1,-1 1,-2l1 0zm9 22c0,4 1,7 3,9 1,2 3,3 6,3 1,0 2,-1 4,-2 1,0 2,-2 3,-4l0 0c0,3 -1,5 -3,7 -2,2 -4,3 -6,3 -3,0 -6,-1 -8,-3 -2,-3 -3,-6 -3,-9 0,-5 1,-8 3,-10 3,-3 5,-4 8,-4 3,0 5,1 7,3 1,2 2,4 2,7l-16 0zm0 -1l11 0c0,-2 0,-3 -1,-4 0,-1 -1,-1 -2,-2 0,-1 -1,-1 -2,-1 -2,0 -3,1 -4,2 -1,1 -2,3 -2,5zm26 -4c3,-3 6,-5 8,-5 2,0 3,1 4,1 1,1 1,2 2,4 0,1 0,2 0,4l0 11c0,1 1,2 1,3 0,0 0,1 1,1 0,0 1,0 2,0l0 1 -12 0 0 -1 1 0c1,0 2,0 2,0 1,0 1,-1 1,-2 0,0 0,-1 0,-2l0 -10c0,-2 0,-4 -1,-5 0,-1 -1,-2 -3,-2 -2,0 -4,2 -6,4l0 13c0,2 0,3 1,3 0,0 0,1 1,1 0,0 1,0 2,0l0 1 -11 0 0 -1 0 0c1,0 2,0 2,0 1,-1 1,-2 1,-4l0 -9c0,-3 0,-5 0,-5 0,-1 0,-2 -1,-2 0,0 0,0 -1,0 0,0 -1,0 -1,0l-1 -1 7 -3 1 0 0 5zm27 -12l0 8 5 0 0 2 -5 0 0 16c0,1 0,2 0,3 1,0 1,1 2,1 1,0 1,0 2,-1 0,0 1,-1 1,-1l1 0c-1,1 -1,3 -3,3 -1,1 -2,2 -3,2 -1,0 -1,0 -2,-1 -1,0 -2,-1 -2,-2 0,-1 0,-2 0,-4l0 -16 -4 0 0 -1c1,0 2,-1 3,-2 1,-1 2,-2 2,-3 1,-1 1,-2 2,-4l1 0zm15 7l0 6c2,-4 4,-6 6,-6 1,0 1,1 2,1 1,1 1,1 1,2 0,1 0,2 -1,2 0,0 -1,1 -1,1 -1,0 -2,-1 -2,-1 -1,-1 -2,-1 -2,-1 0,0 -1,0 -1,0 -1,1 -2,2 -2,4l0 12c0,1 0,2 0,3 0,0 1,1 1,1 1,0 2,0 3,0l0 1 -12 0 0 -1c1,0 2,0 2,0 1,0 1,-1 1,-2 0,0 0,-1 0,-2l0 -10c0,-2 0,-4 0,-5 0,0 0,-1 -1,-1 0,0 0,0 -1,0 0,0 -1,0 -1,0l-1 -1 7 -3 2 0zm14 10c0,4 1,7 3,9 1,2 3,3 6,3 1,0 3,-1 4,-2 1,0 2,-2 3,-4l0 0c0,3 -1,5 -3,7 -1,2 -4,3 -6,3 -3,0 -5,-1 -7,-3 -3,-3 -4,-6 -4,-9 0,-5 2,-8 4,-10 2,-3 4,-4 7,-4 3,0 5,1 7,3 2,2 2,4 2,7l-16 0zm0 -1l11 0c0,-2 0,-3 0,-4 -1,-1 -2,-1 -2,-2 -1,-1 -2,-1 -3,-1 -1,0 -3,1 -4,2 -1,1 -2,3 -2,5zm42 -6l0 16c0,2 0,4 1,4 0,1 1,1 2,1l3 0 0 1 -15 0 0 -1 1 0c1,0 2,0 2,0 1,0 1,-1 1,-2 1,0 1,-1 1,-3l0 -16 -5 0 0 -2 5 0 0 -2c0,-2 0,-4 1,-6 1,-1 2,-3 3,-4 2,-1 4,-1 6,-1 1,0 3,0 5,1 1,1 1,2 1,3 0,1 0,1 0,2 -1,0 -1,0 -2,0 0,0 -1,0 -1,0 -1,0 -1,-1 -2,-2 0,-1 -1,-2 -2,-2 0,0 -1,0 -1,0 -1,0 -2,0 -2,0 -1,1 -1,1 -2,2 0,1 0,3 0,7l0 2 6 0 0 2 -6 0zm20 -3c4,0 7,2 9,4 2,3 2,6 2,9 0,2 0,4 -1,6 -1,3 -2,4 -4,5 -2,2 -4,2 -6,2 -4,0 -7,-1 -9,-4 -1,-3 -2,-5 -2,-9 0,-2 0,-4 1,-6 1,-2 3,-4 5,-5 1,-1 3,-2 5,-2zm-1 2c-1,0 -2,0 -2,1 -1,0 -2,1 -3,3 0,1 -1,3 -1,5 0,4 1,7 2,9 2,3 4,4 6,4 2,0 3,0 4,-2 1,-1 2,-4 2,-7 0,-5 -1,-8 -3,-10 -1,-2 -3,-3 -5,-3zm23 -2l0 6c2,-4 4,-6 6,-6 1,0 2,1 2,1 1,1 1,1 1,2 0,1 0,2 -1,2 0,0 -1,1 -1,1 -1,0 -1,-1 -2,-1 -1,-1 -1,-1 -2,-1 0,0 0,0 -1,0 -1,1 -1,2 -2,4l0 12c0,1 0,2 0,3 1,0 1,1 1,1 1,0 2,0 3,0l0 1 -12 0 0 -1c1,0 2,0 3,0 0,0 0,-1 0,-2 1,0 1,-1 1,-2l0 -10c0,-2 -1,-4 -1,-5 0,0 0,-1 0,-1 -1,0 -1,0 -1,0 -1,0 -1,0 -2,0l0 -1 7 -3 1 0zm33 6l16 0 0 -10c0,-2 0,-3 0,-4 0,0 -1,-1 -1,-1 -1,-1 -2,-1 -3,-1l-1 0 0 -1 15 0 0 1 -1 0c-1,0 -2,0 -2,1 -1,0 -1,1 -2,1 0,1 0,2 0,4l0 23c0,2 0,3 0,4 1,0 1,0 1,1 1,0 2,0 3,0l1 0 0 1 -15 0 0 -1 1 0c2,0 3,0 3,-1 1,0 1,-2 1,-4l0 -11 -16 0 0 11c0,2 0,3 0,4 0,0 1,0 1,1 1,0 2,0 3,0l1 0 0 1 -15 0 0 -1 1 0c2,0 3,0 3,-1 1,0 1,-2 1,-4l0 -23c0,-2 0,-3 0,-4 -1,0 -1,-1 -1,-1 -1,-1 -2,-1 -3,-1l-1 0 0 -1 15 0 0 1 -1 0c-1,0 -2,0 -3,1 0,0 -1,1 -1,1 0,1 0,2 0,4l0 10zm33 4c0,4 1,7 2,9 2,2 4,3 6,3 2,0 3,-1 4,-2 2,0 3,-2 3,-4l1 0c0,3 -1,5 -3,7 -2,2 -4,3 -7,3 -2,0 -5,-1 -7,-3 -2,-3 -3,-6 -3,-9 0,-5 1,-8 3,-10 2,-3 5,-4 8,-4 3,0 5,1 7,3 1,2 2,4 2,7l-16 0zm0 -1l11 0c0,-2 -1,-3 -1,-4 0,-1 -1,-1 -2,-2 -1,-1 -1,-1 -2,-1 -2,0 -3,1 -4,2 -1,1 -2,3 -2,5zm26 -9l0 6c2,-4 4,-6 6,-6 1,0 2,1 3,1 0,1 1,1 1,2 0,1 -1,2 -1,2 -1,0 -1,1 -2,1 0,0 -1,-1 -2,-1 0,-1 -1,-1 -1,-1 -1,0 -1,0 -1,0 -1,1 -2,2 -3,4l0 12c0,1 0,2 1,3 0,0 0,1 1,1 0,0 1,0 2,0l0 1 -12 0 0 -1c1,0 2,0 3,0 0,0 1,-1 1,-2 0,0 0,-1 0,-2l0 -10c0,-2 0,-4 0,-5 0,0 -1,-1 -1,-1 0,0 -1,0 -1,0 0,0 -1,0 -2,0l0 -1 7 -3 1 0zm17 -13c1,0 1,1 2,1 0,1 1,1 1,2 0,1 -1,2 -1,2 -1,1 -1,1 -2,1 -1,0 -1,0 -2,-1 0,0 -1,-1 -1,-2 0,-1 1,-1 1,-2 1,0 1,-1 2,-1zm2 13l0 20c0,1 0,2 0,3 1,0 1,1 1,1 1,0 2,0 3,0l0 1 -12 0 0 -1c1,0 2,0 2,0 1,0 1,-1 1,-1 1,-1 1,-2 1,-3l0 -10c0,-2 0,-4 0,-5 -1,0 -1,-1 -1,-1 0,0 -1,0 -1,0 -1,0 -1,0 -2,0l0 -1 7 -3 1 0zm13 -7l0 8 6 0 0 2 -6 0 0 16c0,1 1,2 1,3 1,0 1,1 2,1 0,0 1,0 1,-1 1,0 1,-1 2,-1l1 0c-1,1 -2,3 -3,3 -1,1 -2,2 -3,2 -1,0 -2,0 -3,-1 0,0 -1,-1 -1,-2 -1,-1 -1,-2 -1,-4l0 -16 -4 0 0 -1c1,0 2,-1 3,-2 1,-1 2,-2 3,-3 0,-1 1,-2 2,-4l0 0zm22 29c-3,2 -4,3 -5,3 -1,1 -2,1 -3,1 -2,0 -3,-1 -4,-2 -1,-1 -2,-2 -2,-4 0,-2 1,-3 1,-3 1,-2 2,-3 4,-4 2,-1 5,-2 9,-4l0 -1c0,-2 -1,-4 -2,-5 0,-1 -1,-1 -3,-1 -1,0 -2,0 -2,1 -1,0 -1,1 -1,2l0 1c0,1 0,2 -1,2 0,1 -1,1 -1,1 -1,0 -2,0 -2,-1 0,0 -1,-1 -1,-2 0,-1 1,-3 3,-4 1,-1 3,-2 6,-2 2,0 4,1 5,1 1,1 2,2 2,3 1,1 1,2 1,5l0 8c0,2 0,4 0,4 0,1 0,1 0,1 1,0 1,0 1,0 0,0 1,0 1,0 0,0 1,-1 2,-2l0 2c-2,3 -4,4 -6,4 0,0 -1,0 -2,-1 0,-1 0,-2 0,-3zm0 -2l0 -9c-3,1 -5,2 -5,2 -2,1 -3,2 -3,3 -1,0 -1,1 -1,2 0,2 0,3 1,4 1,0 1,1 2,1 2,0 3,-1 6,-3zm16 -4c-1,0 -3,-1 -3,-3 -1,-1 -1,-2 -1,-4 0,-2 0,-4 2,-6 2,-2 4,-3 7,-3 2,0 4,1 6,2l5 0c0,0 1,0 1,0 0,0 0,0 0,0 0,0 0,1 0,1 0,1 0,1 0,1 0,0 0,0 0,0 0,0 -1,0 -1,0l-3 0c1,2 1,3 1,5 0,3 -1,4 -2,6 -2,2 -4,3 -7,3 -1,0 -3,-1 -4,-1 0,1 -1,1 -1,2 -1,0 -1,1 -1,1 0,0 0,1 1,1 0,0 1,0 1,1 1,0 2,0 4,0 4,0 6,0 7,0 2,0 3,1 4,2 1,1 1,2 1,4 0,2 -1,4 -3,5 -2,3 -6,4 -10,4 -3,0 -6,-1 -8,-2 -2,-1 -2,-2 -2,-3 0,0 0,-1 0,-1 0,-1 1,-2 2,-3 0,0 1,-1 2,-3 -1,0 -1,-1 -2,-1 0,-1 0,-1 0,-2 0,0 0,-1 1,-2 0,-1 1,-2 3,-4zm4 -14c-1,0 -2,0 -3,1 -1,1 -1,3 -1,5 0,3 1,5 2,6 1,2 2,2 3,2 1,0 3,0 3,-1 1,-1 2,-3 2,-5 0,-3 -1,-5 -2,-7 -1,-1 -2,-1 -4,-1zm-4 23c-1,1 -2,2 -2,3 0,1 -1,1 -1,2 0,1 1,2 2,2 2,1 4,2 7,2 3,0 6,-1 7,-2 2,-1 2,-2 2,-3 0,-1 0,-2 -1,-2 -1,-1 -3,-1 -5,-1 -4,0 -7,0 -9,-1zm24 -15c0,4 1,7 3,9 1,2 3,3 6,3 1,0 3,-1 4,-2 1,0 2,-2 3,-4l0 0c0,3 -1,5 -3,7 -1,2 -4,3 -6,3 -3,0 -6,-1 -8,-3 -2,-3 -3,-6 -3,-9 0,-5 1,-8 4,-10 2,-3 4,-4 7,-4 3,0 5,1 7,3 2,2 2,4 2,7l-16 0zm0 -1l11 0c0,-2 0,-3 -1,-4 0,-1 -1,-1 -1,-2 -1,-1 -2,-1 -3,-1 -2,0 -3,1 -4,2 -1,1 -2,3 -2,5zm55 -21l0 13 -1 0c0,-2 0,-4 -1,-6 -1,-1 -2,-2 -4,-3 -1,-1 -3,-1 -4,-1 -2,0 -4,0 -5,1 -1,1 -1,3 -1,4 0,1 0,2 1,3 1,1 3,3 7,5 4,2 6,4 7,5 1,1 2,2 3,3 0,1 1,3 1,4 0,3 -1,5 -3,7 -2,2 -5,3 -8,3 -1,0 -2,0 -3,0 -1,0 -2,0 -4,-1 -1,-1 -2,-1 -3,-1 0,0 0,0 -1,1 0,0 0,0 0,1l-1 0 0 -12 1 0c0,2 1,4 2,6 0,1 1,2 3,3 2,1 3,1 5,1 2,0 4,0 5,-2 1,-1 2,-2 2,-4 0,-1 0,-2 -1,-2 0,-1 -1,-2 -2,-3 0,-1 -2,-2 -5,-3 -3,-2 -5,-4 -7,-5 -1,-1 -2,-2 -3,-3 0,-1 -1,-3 -1,-4 0,-3 1,-5 3,-7 2,-2 5,-3 8,-3 2,0 4,1 6,2 1,0 1,0 2,0 0,0 0,0 1,0 0,0 0,-1 0,-2l1 0zm14 5l0 8 6 0 0 2 -6 0 0 16c0,1 0,2 1,3 0,0 1,1 1,1 1,0 2,0 2,-1 1,0 1,-1 1,-1l1 0c0,1 -1,3 -2,3 -1,1 -2,2 -4,2 0,0 -1,0 -2,-1 -1,0 -1,-1 -2,-2 0,-1 0,-2 0,-4l0 -16 -4 0 0 -1c1,0 2,-1 3,-2 1,-1 2,-2 3,-3 0,-1 1,-2 1,-4l1 0zm29 8l0 15c0,3 0,4 0,5 0,1 0,1 0,1 1,0 1,1 1,1 1,0 2,-1 2,-1l1 1 -8 3 -1 0 0 -5c-2,2 -3,4 -4,4 -1,1 -3,1 -4,1 -1,0 -2,0 -3,-1 -1,-1 -2,-2 -2,-3 -1,-1 -1,-3 -1,-5l0 -11c0,-1 0,-2 0,-3 0,0 -1,0 -1,-1 -1,0 -2,0 -3,0l0 -1 9 0 0 16c0,3 0,4 1,5 0,1 1,1 2,1 1,0 2,0 3,-1 1,0 2,-1 3,-3l0 -13c0,-2 0,-3 0,-3 -1,-1 -2,-1 -3,-1l0 -1 8 0zm22 22c-1,1 -2,2 -3,2 -2,1 -3,1 -4,1 -3,0 -5,-1 -7,-3 -2,-2 -3,-5 -3,-9 0,-3 1,-6 4,-9 2,-3 4,-5 8,-5 2,0 4,1 5,2l0 -4c0,-3 0,-5 0,-5 0,-1 -1,-1 -1,-2 0,0 0,0 -1,0 0,0 -1,0 -2,0l0 -1 7 -3 1 0 0 29c0,3 0,4 0,5 1,1 1,1 1,1 0,0 1,1 1,1 1,0 1,-1 2,-1l0 1 -7 3 -1 0 0 -3zm0 -2l0 -13c0,-1 0,-2 -1,-3 0,-1 -1,-2 -2,-2 -1,-1 -2,-1 -3,-1 -1,0 -2,1 -4,2 -1,2 -2,5 -2,8 0,4 1,6 2,8 2,2 4,3 5,3 2,0 3,-1 5,-2zm16 -34c0,0 1,1 2,1 0,1 0,1 0,2 0,1 0,2 0,2 -1,1 -2,1 -2,1 -1,0 -2,0 -2,-1 -1,0 -1,-1 -1,-2 0,-1 0,-1 1,-2 0,0 1,-1 2,-1zm2 13l0 20c0,1 0,2 0,3 0,0 1,1 1,1 1,0 1,0 2,0l0 1 -11 0 0 -1c1,0 2,0 2,0 1,0 1,-1 1,-1 0,-1 1,-2 1,-3l0 -10c0,-2 0,-4 -1,-5 0,0 0,-1 0,-1 0,0 -1,0 -1,0 -1,0 -1,0 -2,0l0 -1 7 -3 1 0zm10 10c0,4 1,7 3,9 2,2 4,3 6,3 1,0 3,-1 4,-2 1,0 2,-2 3,-4l1 0c-1,3 -2,5 -4,7 -1,2 -3,3 -6,3 -3,0 -5,-1 -7,-3 -2,-3 -3,-6 -3,-9 0,-5 1,-8 3,-10 2,-3 4,-4 8,-4 2,0 4,1 6,3 2,2 3,4 3,7l-17 0zm0 -1l11 0c0,-2 0,-3 0,-4 -1,-1 -1,-1 -2,-2 -1,-1 -2,-1 -3,-1 -1,0 -3,1 -4,2 -1,1 -1,3 -2,5z"/>
    <path class="fil2" d="M1175 257l0 9 -1 0c0,-3 -1,-5 -2,-6 -1,-1 -3,-1 -4,-1 -1,0 -2,0 -3,1 -1,0 -1,1 -1,2 0,1 0,2 1,3 0,0 1,1 3,2l4 2c3,2 5,4 5,7 0,2 -1,4 -3,5 -1,1 -3,2 -5,2 -1,0 -3,0 -5,-1 -1,0 -1,0 -1,0 -1,0 -1,0 -1,1l-1 0 0 -9 1 0c0,3 1,4 2,6 2,1 3,2 5,2 1,0 2,-1 3,-2 1,0 1,-1 1,-2 0,-1 0,-2 -1,-3 -1,-1 -3,-2 -5,-3 -3,-2 -4,-3 -5,-4 -1,-1 -1,-2 -1,-4 0,-2 0,-3 2,-5 1,-1 3,-2 5,-2 1,0 2,0 3,1 1,0 2,0 2,0 0,0 1,0 1,0 0,0 0,0 0,-1l1 0z"/>
   </g>
   <path class="fil3" d="M694 130l0 32 -6 0 0 -2c-2,-6 -5,-12 -11,-15 -5,-4 -11,-6 -18,-6 -5,0 -10,1 -15,4 -4,3 -7,6 -10,11 -3,6 -4,12 -4,19 0,6 1,13 3,19 2,5 5,10 9,13 5,3 11,4 17,4 5,0 11,-1 15,-3 6,-3 11,-7 16,-11l3 -4 0 13 -1 0c-5,5 -11,9 -17,11 -7,3 -14,3 -21,3 -9,0 -19,-1 -27,-5 -8,-3 -15,-8 -19,-16 -5,-6 -7,-13 -7,-21 0,-9 3,-16 7,-23 6,-8 12,-13 20,-17 9,-4 17,-6 27,-6 7,0 14,1 21,4 2,0 6,2 8,2 1,0 2,-1 2,-1 1,-1 2,-2 2,-3l0 -2 6 0zm83 48l0 23c0,1 0,6 0,7 1,1 2,1 3,2 1,0 3,1 5,1l5 0 0 6 -53 0 0 -6 5 0c2,0 4,-1 6,-1 1,-1 1,-2 2,-2 0,-1 0,-6 0,-7l0 -54c0,-1 0,-5 0,-6 -1,-1 -2,-2 -3,-2 -1,-1 -3,-1 -5,-1l-5 0 0 -6 53 0 0 6 -5 0c-2,0 -4,0 -6,1 -1,0 -1,1 -2,2 0,1 0,5 0,6l0 21 29 0 0 -21c0,-1 0,-5 0,-6 -1,-1 -2,-2 -2,-2 -2,-1 -4,-1 -6,-1l-5 0 0 -6 53 0 0 6 -5 0c-2,0 -4,0 -5,1 -1,0 -2,1 -2,2 -1,1 -1,5 -1,6l0 54c0,1 0,6 1,7 0,1 1,1 2,2 1,0 3,1 5,1l5 0 0 6 -53 0 0 -6 5 0c2,0 4,-1 6,-1 1,-1 1,-2 2,-2 0,-1 0,-6 0,-7l0 -23 -29 0zm174 -48l1 31 -6 0 -1 -2c-1,-6 -4,-11 -9,-15 -4,-4 -10,-6 -16,-6 -3,0 -7,1 -10,3 -2,2 -3,4 -3,6 0,1 0,3 1,4 1,2 4,3 6,5 4,2 10,5 15,7 7,3 17,7 23,13 4,5 6,10 6,16 0,8 -4,14 -10,19 -7,5 -16,7 -25,7 -3,0 -6,0 -8,0 -4,-1 -7,-2 -11,-3 -1,-1 -3,-1 -5,-1 -1,0 -2,0 -2,0 -2,1 -2,2 -3,3l0 1 -6 0 0 -34 6 0 0 1c2,8 5,14 11,19 6,4 11,6 18,6 4,0 8,0 11,-3 3,-2 4,-4 4,-7 0,-1 0,-3 -1,-4 -2,-2 -3,-4 -5,-5 -4,-2 -9,-4 -13,-6 -6,-2 -13,-6 -19,-9 -3,-3 -6,-6 -9,-9 -2,-4 -3,-8 -3,-12 0,-7 3,-13 9,-18 6,-5 14,-7 22,-7 3,0 6,0 9,1 3,0 6,2 9,3 1,0 4,1 6,1 0,0 1,0 1,0 1,-1 1,-3 1,-4l1 -1 5 0z"/>
  </g>
 </g>
</svg>
