<svg xmlns="http://www.w3.org/2000/svg" viewbox="0 0 1200 350" shape-rendering="geometricPrecision" text-rendering="geometricPrecision" image-rendering="optimizeQuality" fill-rule="evenodd" clip-rule="evenodd"><defs><style>.fil2{fill:#1f1a17}.fil3{fill:#000;fill-rule:nonzero}</style></defs><g id="Layer_x0020_1"><g id="_960662918816"><path class="fil2" d="M261 53c-97 7-181 46-233 94-6 5-16 17-13 26 5 13 16 9 32 9h82c54 0 108 2 163 2 24 0 139 2 157 5 10 2 71 7 76 2 13-16-21-39-29-46-31-26-57-44-101-63-31-14-96-32-134-29z"/><path class="fil2" d="M241 192l-18 70 2 2 97 3c0-17-9-47-15-64-5-17-6-12-27-12-13 1-26 1-39 1zM307 188l26 77 45 1c0-13-14-46-19-58-4-7-6-21-15-21-12 0-25 1-37 1zM215 266l21-78c-9 0-37-7-41-1-5 8-28 67-22 72 2 1 37 7 42 7z"/><path class="fil3" d="M239 276v9h-2c-2-2-5-4-9-5-4-2-9-2-14-2-4 0-8 0-12 1-3 1-6 2-8 4s-3 4-3 6 1 4 2 6c2 2 4 4 8 4 3 1 7 2 13 2 4 0 8 0 12-1s8-2 12-4v2c-4 2-8 3-13 4-4 0-9 1-15 1-7 0-14-1-20-2-5-1-10-3-13-5s-5-4-5-6c0-3 2-5 5-7 4-2 9-4 15-5s12-2 19-2c5 0 10 1 15 1 3 1 6 1 6 1h3c1-1 2-1 2-2h2z"/><path id="1" class="fil3" d="M274 290v10c1 1 2 1 3 1h7v1h-37v-1h7c1 0 2 0 2-1 1 0 1-1 1-2v-17c0-1 0-2-1-2 0-1-1-1-2-1-1-1-3-1-5-1h-2 37-3c-2 0-3 0-5 1 0 0-1 0-2 1v9h25v-7c0-1 0-2-1-2 0-1-1-1-2-1-1-1-3-1-5-1h-2 37-3c-2 0-3 0-5 1-1 0-1 0-2 1v21c1 1 1 1 3 1h7v1h-37v-1h7c1 0 2 0 2-1 1 0 1-1 1-2v-8h-25z"/><path id="2" class="fil3" d="M378 276v9h-2c-1-3-4-4-7-6-4-1-9-1-13-1s-7 0-9 1c-2 0-3 1-3 2l1 1c1 1 3 2 5 2 2 1 6 1 11 2 9 2 14 3 17 4 3 2 4 3 4 5s-2 4-6 5c-5 2-11 3-18 3-2 0-4 0-6-1h-8c-1-1-3-1-4-1s-2 0-3 1c-1 0-2 0-2 1h-2v-10h2c1 3 4 5 9 6 4 2 9 2 14 2 4 0 7 0 9-1s3-1 3-2 0-2-1-2c-1-1-2-1-4-2-2 0-5-1-9-2-7-1-11-2-14-3-3 0-5-1-7-2-1-1-2-2-2-4s2-3 6-5c4-1 10-2 16-2h6c2 1 4 1 6 1 3 1 4 1 5 1h2l2-2h2z"/><path class="fil3" d="M658 185v4c0 8-1 15-3 20-4 7-10 11-19 11-6 0-11-2-15-5-3-4-5-9-5-15 0-3 0-7 1-10 1-2 1-5 2-8v-7c0-3 0-6-1-8-2-2-3-3-6-3s-5 1-6 2-2 3-2 5v49h-11v-49c0-2-1-3-2-4-2-1-4-2-6-2-4 0-8 2-9 6-2 4-3 10-3 18 0 5 1 10 2 16 2 6 4 11 6 14v1h-12c-2-5-4-9-5-15-1-5-2-10-2-17 0-11 2-20 6-25 4-6 10-9 18-9 2 0 4 1 6 1 2 1 4 3 6 5 1-2 3-3 6-4s6-2 10-2c5 0 9 2 13 7 2 4 4 9 4 14 0 3-1 6-2 9-2 6-3 11-3 15 0 7 3 11 10 11 4 0 7-3 9-7 1-3 2-7 2-12 0-8-1-15-4-21-2-6-5-11-8-14l-1-1h14c3 5 5 9 7 14s3 11 3 16zm20 34h-11v-58c0-7 0-12-2-15-1-3-3-4-5-4-4 0-7 1-9 3-1 1-3 3-4 5h-1v-13c1-2 3-4 6-5s5-2 8-2c6 0 10 3 14 7 3 5 4 12 4 22v60zm149-27c0 5-1 10-1 14-1 6-3 10-5 14h-11v-1c2-4 4-9 5-15 1-4 1-9 1-16 0-5-1-10-4-15s-6-8-10-9v54c0 7-1 13-3 16-2 5-6 7-11 7s-9-2-13-6-7-9-9-15h-23c2-6 3-11 3-16 0-3 0-6-2-8-1-3-3-4-5-4s-3 1-5 3c-2 3-3 6-3 9 0 2 0 5 1 7 1 3 2 5 4 8l-12 1c-2-5-3-10-3-16 0-7 1-12 4-16s8-7 14-7c5 0 9 2 13 6 3 4 5 8 5 14v4c-1 1-1 3-1 4h9c-1-4-1-8-1-13 0-6 0-11 1-15 2-7 5-13 8-17 6-8 13-11 22-11 10 0 18 3 24 11 5 6 8 16 8 28zm-36 17v-45c-5 2-9 5-12 10-3 6-5 13-5 22 0 4 0 8 1 13h16zm0 11h-14c1 3 2 6 4 8s4 3 6 3c1 0 2-1 3-2 0-2 1-5 1-9zm117 21h-56v-1c7-3 12-7 16-12 2-2 4-5 5-9h-36v-9h18c5 0 9-2 12-5 4-3 6-7 6-12 0-3 0-5-2-6-1-2-3-3-6-3-2 0-4 1-5 3-1 1-2 3-2 6s1 5 3 8h-11c-2-3-2-7-2-10 0-5 1-9 4-13 4-3 8-5 14-5 5 0 10 2 13 5s5 8 5 15c0 4 0 7-1 9s-3 5-6 8h19l-2-55h11l3 86zm-11-8l-1-14h-12c-1 4-2 6-4 9-1 2-3 4-5 5h22zm30-101c1 2 1 4 1 7 0 4-1 7-4 9-3 3-7 5-12 5-4 0-8-2-11-4-3-3-5-7-5-11 0-2 1-4 2-6h11c-2 2-2 4-2 6s0 3 2 4c1 1 2 2 3 2 2 0 3-1 4-2s2-3 2-5-1-4-2-5h11zm131 60c0 5 0 10-1 14-1 6-2 10-4 14h-12v-1c3-4 5-9 5-15 1-4 1-9 1-16 0-5-1-10-4-15s-6-8-10-9v54c0 7-1 13-3 16-2 5-6 7-11 7s-9-2-13-6-7-9-8-15h-24c2-6 4-11 4-16 0-3-1-6-2-8-2-3-4-4-6-4s-3 1-5 3c-2 3-3 6-3 9 0 2 0 5 1 7 1 3 2 5 4 8l-12 1c-2-5-3-10-3-16 0-7 1-12 4-16s8-7 14-7c5 0 9 2 13 6 3 4 5 8 5 14v4c0 1-1 3-1 4h9c-1-4-1-8-1-13 0-6 0-11 1-15 2-7 5-13 8-17 6-8 13-11 22-11 10 0 18 3 24 11 5 6 8 16 8 28zm-36 17v-45c-5 2-9 5-12 10-3 6-5 13-5 22 0 4 1 8 1 13h16zm0 11h-14c1 3 2 6 4 8s4 3 6 3 3-1 3-2c1-2 1-5 1-9zm142-35v4c0 8-1 15-4 20-3 7-9 11-18 11-7 0-12-2-15-5-4-4-6-9-6-15 0-3 1-7 2-10 0-2 1-5 1-8 1-3 1-5 1-7 0-3-1-6-2-8s-3-3-5-3c-3 0-5 1-6 2-2 1-2 3-2 5v49h-11v-49c0-2-1-3-3-4-1-1-3-2-5-2-5 0-8 2-10 6s-2 10-2 18c0 5 0 10 2 16 1 6 3 11 6 14v1h-12c-2-5-4-9-5-15-1-5-2-10-2-17 0-11 2-20 6-25 4-6 10-9 17-9 3 0 5 1 7 1 2 1 4 3 6 5 1-2 3-3 6-4s6-2 9-2c6 0 10 2 13 7 3 4 4 9 4 14 0 3 0 6-1 9-2 6-3 11-3 15 0 7 3 11 9 11 4 0 7-3 9-7 2-3 3-7 3-12 0-8-2-15-4-21s-5-11-9-14v-1h13c4 5 6 9 8 14s3 11 3 16zm18-53c2 2 2 4 2 7 0 4-1 7-4 9-3 3-7 5-12 5s-8-2-11-4c-3-3-5-7-5-11 0-2 1-4 2-6h11c-2 2-2 4-2 6s0 3 1 4c2 1 3 2 4 2 2 0 3-1 4-2s2-3 2-5-1-4-2-5h10z"/><path d="M975 288c1 0 2 0 2 1 2 1 2 3 2 5s0 4-1 5l-3 3-1 1-2-3h1c1-1 1-2 2-2 0-1 1-2 1-3s-1-2-2-3-2-1-3-1-2 0-3 1-1 2-1 3c0 2 1 4 3 5l-1 3-1-1-3-3c-1-1-1-3-1-4 0-2 0-4 1-5s2-2 3-2c-2-1-4-3-5-5s-2-4-2-6c0-3 1-5 3-7 2-3 5-4 9-4 2 0 5 1 7 3s3 5 3 8c0 2-1 4-2 6-2 2-3 3-6 5zm-1-1l-1-2c3-2 4-4 4-7 0-2 0-4-1-5-1-2-3-2-5-2s-3 0-5 2c-1 1-1 3-1 5 0 1 0 3 1 4 1 2 2 3 3 4h1l-1 1h5zm-313 0l2 2c2 1 3 3 3 5s-1 4-2 5l-3 3-1 1-1-3c1-1 1-2 2-2 0-1 1-2 1-3s-1-2-2-3-2-1-3-1-2 0-3 1-1 2-1 3c0 2 1 4 3 5l-1 3-1-1-3-3c-1-1-1-3-1-4 0-2 0-4 1-5 1-2 3-2 5-3-1 0-2-1-2-1-1-2-2-3-2-5 0-3 1-5 2-7 0-1 2-3 3-4h-1c-1-1-2-1-2-1-1 0-2 1-3 1-1 1-1 1-1 2v16h-5v-14c0-1 0-2-1-3s-1-1-2-1c-2 0-3 1-4 2-2 1-2 3-2 5s0 3 1 4c1 2 2 3 4 5h1l-3 2-5-5c-1-2-2-4-2-6 0-3 1-6 4-9 1-1 4-2 6-2s3 0 4 1c1 0 2 1 3 2 0-1 1-2 2-2 1-1 2-1 4-1h3s1 0 1 1c0-1 0-1 1-1v-1c0-1-1-1-1-2-1-1-2-1-3-1 0 0-1 0-1 1-1 0-1 0-2 1l-2-1v-1l3-3c1-1 2-1 4-1 1 0 3 0 4 2 1 1 1 2 1 4 0 1 0 3-1 4 1 1 2 3 3 4 0 2 1 4 1 6 0 3-1 5-2 7-1 1-2 2-3 2zm-2-15l-3 3c0 2-1 3-1 5 0 1 0 2 1 3 0 0 1 1 2 1s1-1 2-2 1-2 1-4 0-5-2-6zm-93 4v-1c1-1 2-1 3-1 2 0 4 1 5 3 1 1 1 3 1 4 0 2 0 4-1 5s-3 2-5 2-4-1-5-3-2-4-2-6c0-3 1-6 3-9s5-4 8-4c4 0 6 1 9 3 2 2 3 5 3 8 0 2-1 4-2 6s-3 4-4 5l-4-1 1-1c1-1 2-2 3-4 0-1 1-3 1-4 0-2-1-4-2-6-2-2-3-2-5-2s-4 0-6 2c0 1-1 2-1 4zm5 5c0-1 0-2-1-2 0-1-1-1-1-1-1 0-2 0-2 1-1 0-1 1-1 2s0 1 1 2c0 1 1 1 2 1 0 0 1 0 1-1 1-1 1-1 1-2zm32-12l2-2c2-1 3-1 4-1 2 0 4 0 6 2s3 4 3 7v4c0 1 0 3 1 4 0 0 1 1 2 1s3-1 4-2c1-2 2-3 2-5s-1-4-2-5c-1-2-2-3-4-4l2-2c2 1 4 3 5 5s2 5 2 7-1 5-3 7c-1 2-4 3-7 3-2 0-3-1-5-2-1-2-2-4-2-7v-4c0-1 0-3-1-4s-2-2-4-2c-1 0-1 1-2 1-1 1-1 1-1 2v16h-5v-14c0-1-1-2-1-3-1-1-1-1-2-1-2 0-3 1-4 2-2 1-2 3-2 5s0 3 1 4c1 2 2 3 4 5l-2 2c-2-2-4-3-5-5s-2-4-2-6c0-3 1-6 3-9 2-1 4-2 7-2 1 0 3 0 4 1 1 0 2 1 2 2zm78 1h-2c-2 0-4 1-5 2-2 2-2 4-2 6s0 3 1 5l3 3v1l-2 2v-1c-2-1-3-3-4-5s-2-4-2-6c0-3 1-6 3-8 3-2 5-3 8-3 2 0 4 0 5 1v-2-2c-1-1-2-1-3-1 0 0-1 0-2 1 0 0-1 0-1 1l-3-1 1-1c0-1 1-2 2-3 2-1 3-1 5-1 1 0 3 0 4 2 1 1 1 2 1 4 0 1-1 3-2 4 2 2 3 3 3 5 1 1 1 3 1 5s0 5-2 7c-1 2-3 3-5 3s-3-1-5-2c-1-2-2-4-2-6s1-4 2-6c1-1 2-3 3-4zm2 2c-1 1-2 2-2 3-1 1-2 3-2 4s1 3 1 4c1 0 2 1 2 1 1 0 2-1 3-2 0-1 1-2 1-4 0-1-1-3-1-4-1-1-1-2-2-2zm37-3c-2 0-3 1-5 2-1 2-1 4-1 6s0 4 1 6c2 1 3 2 5 2-1-1-1-2-1-3s0-2 1-3 2-2 4-2c1 0 2 1 3 2s2 2 2 3c0 2-1 3-3 4-2 2-4 2-6 2-3 0-6-1-8-3s-3-5-3-8 1-6 3-8 5-3 8-3c2 0 4 0 6 1 2 2 3 3 3 5 0 1-1 2-2 3s-2 2-3 2-3-1-4-2-1-2-1-3 0-2 1-3zm4 0l-1 1c0 1-1 1-1 2 0 0 0 1 1 1 0 1 0 1 1 1l1-1c1 0 1-1 1-1 0-1 0-1-1-2 0 0-1 0-1-1zm0 15s1 0 1-1c1 0 1-1 1-1 0-1 0-1-1-1 0-1-1-1-1-1-1 0-1 0-1 1-1 0-1 1-1 1l1 1c0 1 0 1 1 1zm23 1h6v-10c0-3 1-5 3-7s4-2 7-2 5 1 7 3 3 4 3 7v12h-33v-2c1-1 2-1 2-2 1-1 1-2 1-3s0-2-1-3-2-1-3-1-2 0-3 1-2 2-2 3 0 2 1 3l2 2-2 2h-1c-1-1-2-2-2-4-1-1-1-2-1-4s1-4 2-5c2-2 4-2 7-2 2 0 4 0 6 2 1 2 2 4 2 6v2c-1 1-1 1-1 2zm23 0v-7c0-4-1-8-6-8-2 0-3 0-4 1-2 1-2 3-2 5v9h12zm22-8c0 2 0 5-2 7-2 3-4 4-7 4-2 0-4-1-5-2-2-2-3-4-3-7h3c1 3 2 5 4 5s3-1 4-2c1-2 1-4 1-6 0-1 0-3-1-5-1-1-2-2-3-2-4 0-5 3-5 6v1h-3v-1c0-2 1-4 2-6s3-3 6-3 5 1 7 3 2 5 2 8zm15-7h-1c-3 0-4 1-6 2-1 2-2 4-2 6s0 3 1 5l3 3 1 1-2 2-1-1c-2-1-3-3-4-5s-1-4-1-6c0-3 1-6 3-8s5-3 8-3c1 0 3 0 4 1 1-1 1-1 1-2s0-1-1-2-1-1-2-1-2 0-2 1c-1 0-1 0-2 1l-2-1v-1l3-3c1-1 2-1 4-1 1 0 3 0 4 2 1 1 1 2 1 4 0 1 0 3-1 4 1 2 2 3 3 5 0 1 1 3 1 5s-1 5-2 7c-2 2-3 3-6 3-2 0-3-1-4-2-2-2-2-4-2-6s0-4 1-6c1-1 2-3 3-4zm3 2l-3 3c-1 1-1 3-1 4s0 3 1 4c0 0 1 1 2 1s1-1 2-2 1-2 1-4c0-1 0-3-1-4 0-1-1-2-1-2zm28 4c1 0 1-1 1-1 1-1 2-1 3-1 2 0 4 1 5 3 1 1 1 3 1 4 0 2 0 4-1 5s-3 2-5 2-4-1-5-3-2-4-2-6c0-3 1-6 3-9s5-4 8-4c4 0 6 1 9 3 2 2 3 5 3 8 0 2-1 4-2 6s-3 4-4 5h-1l-3-1 1-1c1-1 2-2 3-4 0-1 1-3 1-4 0-2-1-4-3-6-1-2-2-2-4-2-3 0-4 0-6 2-1 1-1 2-2 4zm6 5c0-1 0-2-1-2 0-1-1-1-1-1-1 0-2 0-2 1-1 0-1 1-1 2s0 1 1 2c0 1 1 1 1 1 1 0 2 0 2-1 1-1 1-1 1-2zm32 4h9c-1-1-2-2-2-3-1-2-1-3-1-5 0-3 1-5 3-8 2-2 4-3 8-3 2 0 5 1 7 3s3 5 3 7c0 3-1 5-2 6-1 3-3 5-5 6h-1l-2-3h1c2-2 4-4 4-7 0-2-1-4-2-5-1-2-3-2-4-2-2 0-4 0-5 2-1 1-2 3-2 5s1 3 2 5c1 1 2 2 4 3v2h-22v-2c1-1 2-1 2-2 1-1 1-2 1-3s0-2-1-3-2-1-3-1-2 0-3 1-2 2-2 3 1 2 1 3l2 2-2 2h-1c-1-1-1-2-2-4-1-1-1-2-1-4s1-4 2-5c2-2 4-2 7-2 2 0 4 0 6 2 1 2 2 4 2 6v2c0 1-1 1-1 2zm51-9c0 3-1 5-2 6-1 3-3 5-6 6l-2-3c3-2 5-4 5-7 0-2-1-4-2-5-1-2-3-2-5-2-1 0-3 0-4 2-2 1-2 3-2 5 0 1 0 3 1 4 1 2 2 3 3 4h1l-2 2c-2-1-4-3-5-5s-2-4-2-6c0-3 1-5 3-8 2-2 5-3 9-3 2 0 5 1 7 3s3 5 3 7zm9 12h-5v-22c0-3-1-4-3-4-1 0-2 0-2 1-1 0-1 1-2 2h-2c0-2 1-4 2-5s3-2 5-2 4 0 5 1c2 2 2 4 2 6v23zm14-19c-2 0-3 1-4 2-2 2-2 4-2 6s0 4 2 6c1 1 2 2 4 2-1-1-1-2-1-3s1-2 1-3c1-1 3-2 4-2s3 1 3 2c1 1 2 2 2 3 0 2-1 3-3 4-1 2-4 2-6 2-3 0-6-1-8-3s-3-5-3-8 1-6 3-8 5-3 8-3c2 0 5 0 6 1 2 2 3 3 3 5 0 1-1 2-2 3 0 1-2 2-3 2s-3-1-4-2-1-2-1-3 0-2 1-3zm4 0c0 1-1 1-1 1v3c0 1 1 1 1 1 1 0 1-1 2-1v-1c0-1 0-1-1-2l-1-1zm0 15c1 0 1 0 1-1 1 0 1-1 1-1v-1c-1-1-1-1-2-1 0 0-1 0-1 1v2c0 1 1 1 1 1zm51-1h-2c-1 1-2 2-3 2-2 1-3 2-4 2-2 1-3 1-4 1-2 0-3 0-4-1-2-1-2-2-2-4 0-3 1-4 3-5-1 0-2-1-3-2s-1-2-1-3c0-3 1-4 3-6 2-1 4-2 6-2s3 1 5 1c1 0 2 1 2 2l2-2c1 0 3-1 5-1 1 0 3 1 5 2 1 1 2 3 2 5s-1 4-2 5-2 1-2 2c1 0 2 0 2 1 1 1 2 2 2 3 0 2 0 3-2 4-1 1-2 1-3 1s-3 0-4-1-1-2-1-3v-1zm-12-6h11c2 0 3-1 4-2 1 0 2-1 2-3 0-1 0-2-1-2-1-1-2-1-3-1h-2c-1 1-1 2-1 3v4h-5v-4c0-1-1-2-2-2-1-1-2-2-3-2s-1 1-2 1c1 0 2 0 2 1 1 1 2 2 2 3s-1 2-2 3v1zm12 3h-13c-1 1-1 1-1 2v1c1 1 2 1 2 1 1 0 2-1 3-1s2 0 4-1c1-1 3-2 5-2zm-14-7l-1-1s0-1-1-1c0 0 0 1-1 1v2l1 1c1 0 1 0 1-1 0 0 1 0 1-1zm20 10v-1h-3v2h3v-1zm41 4c1 1 2 1 3 2 2 1 2 3 2 5s0 4-1 5l-3 3-1 1-2-3h1c1-1 1-2 2-2 0-1 1-2 1-3s-1-2-2-3-2-1-3-1-2 0-3 1-1 2-1 3c0 2 1 4 3 5l-1 3-1-1-3-3c-1-1-1-3-1-4 0-2 0-4 1-5s3-2 4-3v-13c0-1 0-2-1-3 0-1-1-1-2-1s-3 1-4 2-2 3-2 5 0 3 1 4c1 2 3 3 4 5h1l-2 2h-1c-2-2-3-3-4-5-2-2-2-4-2-6 0-3 1-6 3-9 2-1 4-2 6-2s3 0 5 1l2 2c0-1 1-2 2-2 1-1 2-1 4-1s4 0 5 2c2 2 3 4 3 7v4c0 1 0 3 1 4 1 0 1 1 2 1 2 0 3-1 4-2 2-2 2-3 2-5s0-4-1-5c-1-2-2-3-4-4h-1l3-2c2 1 4 3 5 5s2 5 2 7-1 5-3 7c-1 1-3 2-4 2l2 2c2 1 3 3 3 5s-1 4-2 5l-3 3-1 1-1-3c1-1 1-2 2-2 0-1 1-2 1-3s-1-2-2-3-2-1-3-1-2 0-3 1-1 2-1 3c0 2 1 4 3 5l-1 3-1-1-3-3c-1-1-1-3-1-4 0-2 0-4 1-5s3-2 4-3c-1 0-2-1-2-1-2-2-2-4-2-7v-4c0-1-1-3-2-4s-2-2-3-2-2 1-3 1c0 1-1 1-1 2v15zm-36-30c0 2 0 4-2 5-1 2-3 3-5 3-1 0-3-1-4-2-2-1-3-3-3-5v-1s1 0 1-1h5l-1 1v1c0 1 1 2 1 2 1 1 1 1 2 1s2-1 2-1c1-1 1-2 1-3v-1h3v1zm91 28l-2 2c-2 1-3 1-4 1-2 0-4-1-6-2-2-2-3-4-3-7v-4c0-1 0-3-1-4 0-1-1-1-2-1s-3 1-4 2-2 3-2 5 1 3 2 5c1 1 2 3 3 4h1l-2 2c-2-1-4-3-5-4-1-3-2-5-2-7 0-3 1-6 3-8 1-2 4-3 6-3s4 0 6 2c1 2 2 4 2 6v4c0 2 0 4 1 5s2 1 4 1h2c1-1 1-2 1-3v-15h6v17c1 0 2 1 2 1 2 0 3-1 5-2 1-2 2-4 2-6 0-1-1-2-1-4l-4-4h-1l2-2h1c1 1 3 3 4 5s2 4 2 6c0 3-1 6-3 8s-4 3-7 3c-1 0-3 0-4-1-1 0-1-1-2-2zm24-24v1c1 0 1 1 1 3 0 1 0 2-1 3-1 0-2 1-3 1-2 0-3-1-4-1-1-1-1-2-1-4s1-3 2-4c2-1 4-2 6-2 1 0 3 0 5 1 1 2 2 4 2 6v23h-5v-22c0-1-1-3-1-4-1 0-1-1-1-1zm-4 1c-1 0-1 1-1 1v3h1c1 0 1 0 2-1v-1s0-1-1-1c0-1-1-1-1-1zm30 7c0-1 1-2 2-2 1-1 2-1 4-1s4 0 5 2c2 2 3 4 3 7v4c0 1 0 3 1 4 1 0 1 1 2 1 2 0 3-1 4-2 2-2 2-3 2-5s0-4-1-5c-1-2-2-3-4-4h-1l3-2c2 1 4 3 5 5s2 5 2 7-1 5-3 7-4 3-7 3c-2 0-4-1-5-2-2-2-2-4-2-7v-4c0-1-1-3-2-4s-2-2-3-2-2 1-3 1c0 1-1 1-1 2v16h-5v-14c0-1 0-2-1-3 0-1-1-1-2-1s-3 1-4 2-2 3-2 5 0 3 1 4c1 2 3 3 4 5h1l-3 2c-2-2-3-3-4-5-2-2-2-4-2-6 0-3 1-6 3-9 2-1 4-2 6-2s3 0 5 1l2 2zm27-12c0 2 0 4-1 5-2 2-3 3-5 3s-4-1-5-2c-2-1-2-3-2-5v-1-1h5v4c1 1 1 1 2 1s2-1 3-1c0-1 1-2 1-3v-1h2v1z" fill="#e2b13c"/></g></g></svg>